<svg width="32" height="32" viewBox="0 0 32 32" fill="none" xmlns="http://www.w3.org/2000/svg">
<path fill-rule="evenodd" clip-rule="evenodd" d="M29.0373 4.49602C29.1978 4.69498 29.2977 4.93587 29.3251 5.18999C29.3525 5.4441 29.3063 5.70075 29.192 5.92936L26.5253 11.2627C26.4265 11.4604 26.2801 11.6304 26.0993 11.7575C25.9184 11.8846 25.7088 11.9647 25.4893 11.9907C24.1053 12.1489 22.72 12.2849 21.3333 12.3987V14.22C23.0299 13.9899 24.7184 13.7035 26.396 13.3614C26.7393 13.2968 27.0942 13.3696 27.3844 13.5641C27.6746 13.7585 27.8769 14.059 27.9478 14.401C28.0187 14.7431 27.9526 15.0993 27.7636 15.393C27.5747 15.6868 27.278 15.8947 26.9373 15.972C26.404 16.0805 25.8693 16.1827 25.3333 16.2787V24C25.687 24 26.0261 24.1405 26.2761 24.3905C26.5262 24.6406 26.6667 24.9797 26.6667 25.3334C26.6667 25.687 26.5262 26.0261 26.2761 26.2762C26.0261 26.5262 25.687 26.6667 25.3333 26.6667H18.6667C18.313 26.6667 17.9739 26.5262 17.7239 26.2762C17.4738 26.0261 17.3333 25.687 17.3333 25.3334C17.3333 24.9797 17.4738 24.6406 17.7239 24.3905C17.9739 24.1405 18.313 24 18.6667 24V17.2067C17.744 17.2854 16.8347 17.3334 16 17.3334C15.1653 17.3334 14.256 17.284 13.3333 17.2067V24C13.687 24 14.0261 24.1405 14.2761 24.3905C14.5262 24.6406 14.6667 24.9797 14.6667 25.3334C14.6667 25.687 14.5262 26.0261 14.2761 26.2762C14.0261 26.5262 13.687 26.6667 13.3333 26.6667H6.66666C6.31304 26.6667 5.9739 26.5262 5.72385 26.2762C5.4738 26.0261 5.33333 25.687 5.33333 25.3334C5.33333 24.9797 5.4738 24.6406 5.72385 24.3905C5.9739 24.1405 6.31304 24 6.66666 24V16.28C6.13079 16.1842 5.59608 16.082 5.06266 15.9734C4.71611 15.9016 4.41227 15.6951 4.21799 15.3993C4.0237 15.1034 3.95488 14.7426 4.02666 14.396C4.09845 14.0495 4.30496 13.7456 4.60077 13.5513C4.89657 13.3571 5.25745 13.2882 5.604 13.36C7.28133 13.704 8.97066 13.9867 10.6667 14.22V12.3987C9.27973 12.2844 7.89467 12.1484 6.512 11.9907C6.29263 11.9638 6.08325 11.8833 5.90234 11.7563C5.72143 11.6294 5.57455 11.4598 5.47466 11.2627L2.808 5.92936C2.69396 5.70069 2.64804 5.44406 2.67569 5.19004C2.70335 4.93601 2.80342 4.69528 2.96398 4.4965C3.12455 4.29773 3.33885 4.14927 3.58138 4.06882C3.82392 3.98836 4.08446 3.9793 4.332 4.04269L4.95866 4.19869L6.228 4.49736L7.36933 4.75202L8.22533 4.93469L8.67466 5.02669C9.02844 5.0978 9.38844 5.16802 9.75466 5.23736L10.8613 5.43736C12.7173 5.75736 14.592 6.00003 16 6.00003C17.408 6.00003 19.2827 5.75869 21.1373 5.43869L22.244 5.23869L23.324 5.02536L24.6307 4.75202L25.772 4.49869L26.4147 4.34802C26.8333 4.25025 27.2507 4.14802 27.6667 4.04136C27.9145 3.97736 28.1756 3.98608 28.4187 4.06646C28.6617 4.14685 28.8765 4.29685 29.0373 4.49602ZM22.6667 24V16.7214L21.7867 16.8494L21.3333 16.9107V24H22.6667ZM9.33333 16.7214V24.0014H10.6667V16.9107L9.76666 16.7854L9.33333 16.7214ZM18.6667 14.5294V12.5827L17.564 12.636C17.0213 12.6547 16.4933 12.6667 16 12.6667C15.5067 12.6667 14.9787 12.6547 14.436 12.6347L13.3333 12.584V14.5294C14.2707 14.6134 15.1827 14.6667 16 14.6667C16.6533 14.6667 17.368 14.6334 18.108 14.576L18.6667 14.5294ZM24.4653 9.42269L25.5333 7.28402L23.9667 7.62536C21.344 8.18536 18.6707 8.66669 16 8.66669C13.3293 8.66669 10.656 8.18536 8.03333 7.62669L6.46666 7.28269L7.53466 9.42003C10.344 9.72136 13.1747 9.99869 16 9.99869C18.4227 9.99869 20.848 9.79469 23.26 9.54669L24.4653 9.42003V9.42269Z" fill="url(#paint0_linear_351_10)"/>
<defs>
<linearGradient id="paint0_linear_351_10" x1="16.0003" y1="3.99902" x2="16.0003" y2="26.6667" gradientUnits="userSpaceOnUse">
<stop stop-color="#FB897B"/>
<stop offset="1" stop-color="#FFDE94"/>
</linearGradient>
</defs>
</svg>
